<svg width="21" height="19" viewBox="0 0 21 19" fill="none" xmlns="http://www.w3.org/2000/svg">
<path d="M12.75 12.1157C13.7165 12.1157 14.5 12.8992 14.5 13.8657L14.4989 14.8277C14.6156 17.0168 12.9879 18.1247 10.0668 18.1247C7.15786 18.1247 5.5 17.0349 5.5 14.8657V13.8657C5.5 12.8992 6.2835 12.1157 7.25 12.1157H12.75ZM1.75 7.11566L6.126 7.11575C6.04375 7.43534 6 7.77039 6 8.11566C6 9.23119 6.45665 10.2401 7.1932 10.9656L7.35526 11.1166L7.25 11.1157C6.94865 11.1157 6.65863 11.1641 6.38729 11.2537C5.52255 11.5392 4.84765 12.2421 4.60122 13.1238L4.56679 13.1247C1.65786 13.1247 0 12.0349 0 9.86566V8.86566C0 7.89916 0.783502 7.11566 1.75 7.11566ZM18.25 7.11566C19.2165 7.11566 20 7.89916 20 8.86566L19.9989 9.82773C20.1156 12.0168 18.4879 13.1247 15.5668 13.1247L15.3985 13.1229C15.1596 12.269 14.5188 11.583 13.6929 11.2816C13.4576 11.1957 13.2073 11.141 12.947 11.1226L12.75 11.1157L12.6447 11.1166C13.4758 10.3837 14 9.31087 14 8.11566C14 7.77039 13.9563 7.43534 13.874 7.11575L18.25 7.11566ZM10 5.11566C11.6569 5.11566 13 6.45881 13 8.11566C13 9.77252 11.6569 11.1157 10 11.1157C8.34315 11.1157 7 9.77252 7 8.11566C7 6.45881 8.34315 5.11566 10 5.11566ZM4.5 0.115662C6.15685 0.115662 7.5 1.45881 7.5 3.11566C7.5 4.77252 6.15685 6.11566 4.5 6.11566C2.84315 6.11566 1.5 4.77252 1.5 3.11566C1.5 1.45881 2.84315 0.115662 4.5 0.115662ZM15.5 0.115662C17.1569 0.115662 18.5 1.45881 18.5 3.11566C18.5 4.77252 17.1569 6.11566 15.5 6.11566C13.8431 6.11566 12.5 4.77252 12.5 3.11566C12.5 1.45881 13.8431 0.115662 15.5 0.115662Z" fill="#212121"/>
</svg>
