<svg width="20" height="21" viewBox="0 0 20 21" fill="none" xmlns="http://www.w3.org/2000/svg">
<path d="M9.75187 0.115234C11.2717 0.115234 12.5037 1.34729 12.5037 2.86711V17.3656C12.5037 18.8855 11.2717 20.1175 9.75187 20.1175C8.23205 20.1175 7 18.8855 7 17.3656V2.86711C7 1.34729 8.23205 0.115234 9.75187 0.115234ZM16.7519 5.11523C18.2717 5.11523 19.5037 6.34729 19.5037 7.8671V17.3656C19.5037 18.8855 18.2717 20.1175 16.7519 20.1175C15.2321 20.1175 14 18.8855 14 17.3656V7.8671C14 6.34729 15.2321 5.11523 16.7519 5.11523ZM2.75187 10.1152C4.27169 10.1152 5.50374 11.3473 5.50374 12.8671V17.3656C5.50374 18.8855 4.27169 20.1175 2.75187 20.1175C1.23205 20.1175 0 18.8855 0 17.3656V12.8671C0 11.3473 1.23205 10.1152 2.75187 10.1152Z" fill="#212121"/>
</svg>
