<svg width="20" height="21" viewBox="0 0 20 21" fill="none" xmlns="http://www.w3.org/2000/svg">
<path d="M10 0.115662C15.523 0.115662 20 4.59366 20 10.1157C20 15.6377 15.523 20.1157 10 20.1157C4.477 20.1157 0 15.6377 0 10.1157C0 4.59366 4.477 0.115662 10 0.115662ZM10 13.6157C9.44772 13.6157 9 14.0634 9 14.6157C9 15.1679 9.44772 15.6157 10 15.6157C10.5523 15.6157 11 15.1679 11 14.6157C11 14.0634 10.5523 13.6157 10 13.6157ZM10 4.86566C8.48122 4.86566 7.25 6.09688 7.25 7.61566C7.25 8.02988 7.58579 8.36566 8 8.36566C8.3797 8.36566 8.69349 8.08351 8.74315 7.71743L8.75 7.61566C8.75 6.92531 9.30964 6.36566 10 6.36566C10.6904 6.36566 11.25 6.92531 11.25 7.61566C11.25 8.15448 11.115 8.42092 10.6051 8.94786L10.4697 9.08533C9.59157 9.96343 9.25 10.5327 9.25 11.6157C9.25 12.0299 9.58579 12.3657 10 12.3657C10.4142 12.3657 10.75 12.0299 10.75 11.6157C10.75 11.0768 10.885 10.8104 11.3949 10.2835L11.5303 10.146C12.4084 9.26789 12.75 8.69861 12.75 7.61566C12.75 6.09688 11.5188 4.86566 10 4.86566Z" fill="#212121"/>
</svg>
