<svg width="21" height="22" viewBox="0 0 21 22" fill="none" xmlns="http://www.w3.org/2000/svg">
<path d="M10.0221 12.115C9.37504 13.1255 8.99988 14.3268 8.99988 15.6157C8.99988 17.2461 9.6001 18.7362 10.5916 19.8772C9.79608 20.0373 8.9312 20.1168 7.99988 20.1168C4.57891 20.1168 2.05595 19.0447 0.513786 16.8803C0.181823 16.4144 0.00341797 15.8566 0.00341797 15.2845V14.3645C0.00341797 13.1225 1.01027 12.1157 2.25229 12.1157L10.0221 12.115ZM15.4999 10.1157C18.5374 10.1157 20.9999 12.5782 20.9999 15.6157C20.9999 18.6533 18.5374 21.1157 15.4999 21.1157C12.4623 21.1157 9.99988 18.6533 9.99988 15.6157C9.99988 12.5782 12.4623 10.1157 15.4999 10.1157ZM15.4999 17.8667C15.155 17.8667 14.8754 18.1463 14.8754 18.4912C14.8754 18.8361 15.155 19.1157 15.4999 19.1157C15.8448 19.1157 16.1244 18.8361 16.1244 18.4912C16.1244 18.1463 15.8448 17.8667 15.4999 17.8667ZM15.4999 11.9898C14.452 11.9898 13.6356 12.8072 13.6465 13.9441C13.6492 14.2202 13.8752 14.4419 14.1513 14.4393C14.4274 14.4366 14.6491 14.2106 14.6465 13.9345C14.6409 13.3555 15.0061 12.9898 15.4999 12.9898C15.9723 12.9898 16.3533 13.3817 16.3533 13.9393C16.3533 14.1316 16.298 14.2816 16.1294 14.5008L16.0354 14.6167L15.9364 14.73L15.671 15.02L15.5345 15.1772C15.1512 15.634 14.9999 15.9697 14.9999 16.4873C14.9999 16.7635 15.2238 16.9873 15.4999 16.9873C15.7761 16.9873 15.9999 16.7635 15.9999 16.4873C15.9999 16.2841 16.0584 16.1283 16.2387 15.8971L16.3237 15.793L16.4246 15.6775L16.6904 15.387L16.825 15.2319C17.2032 14.7811 17.3533 14.4487 17.3533 13.9393C17.3533 12.8356 16.531 11.9898 15.4999 11.9898ZM7.99988 0.120361C10.7613 0.120361 12.9999 2.35894 12.9999 5.12036C12.9999 7.88179 10.7613 10.1204 7.99988 10.1204C5.23845 10.1204 2.99988 7.88179 2.99988 5.12036C2.99988 2.35894 5.23845 0.120361 7.99988 0.120361Z" fill="#212121"/>
</svg>
